<?xml version="1.0" standalone="no"?>
<!DOCTYPE svg PUBLIC "-//W3C//DTD SVG 20010904//EN"
 "http://www.w3.org/TR/2001/REC-SVG-20010904/DTD/svg10.dtd">
<svg version="1.0" xmlns="http://www.w3.org/2000/svg"
 width="215.000000pt" height="215.000000pt" viewBox="0 0 215.000000 215.000000"
 preserveAspectRatio="xMidYMid meet">
<metadata>
Created by potrace 1.14, written by Peter Selinger 2001-2017
</metadata>
<g transform="translate(0.000000,215.000000) scale(0.100000,-0.100000)"
fill="#000000" stroke="none">
<path d="M1747 2093 l-97 -4 -282 -422 c-154 -232 -341 -511 -415 -620 l-135
-197 -164 205 -164 205 -161 0 c-89 0 -159 -4 -157 -9 2 -5 97 -124 211 -265
l208 -256 228 0 228 0 456 685 457 685 -57 -2 c-32 -1 -102 -4 -156 -5z"/>
<path d="M1767 1443 l-97 -4 -282 -422 c-154 -232 -341 -511 -415 -620 l-135
-197 -164 205 -164 205 -161 0 c-89 0 -159 -4 -157 -9 2 -5 97 -124 211 -265
l208 -256 228 0 228 0 456 685 457 685 -57 -2 c-32 -1 -102 -4 -156 -5z"/>
</g>
</svg>
