<?xml version="1.0" standalone="no"?>
<!DOCTYPE svg PUBLIC "-//W3C//DTD SVG 20010904//EN"
 "http://www.w3.org/TR/2001/REC-SVG-20010904/DTD/svg10.dtd">
<svg version="1.0" xmlns="http://www.w3.org/2000/svg"
 width="215.000000pt" height="215.000000pt" viewBox="0 0 215.000000 215.000000"
 preserveAspectRatio="xMidYMid meet">
<metadata>
Created by potrace 1.14, written by Peter Selinger 2001-2017
</metadata>
<g transform="translate(0.000000,215.000000) scale(0.100000,-0.100000)"
fill="#000000" stroke="none">
<path d="M1701 2090 l-54 -5 -413 -617 -414 -617 -162 200 c-89 111 -167 203
-173 205 -6 3 -81 3 -166 2 l-156 -3 134 -165 c183 -226 193 -238 231 -284 18
-23 40 -49 48 -58 12 -16 37 -18 242 -18 l229 0 168 253 c93 138 298 447 457
685 l288 433 -102 -3 c-57 -2 -127 -5 -157 -8z"/>
<path d="M1726 1440 l-59 -5 -409 -610 c-225 -335 -414 -610 -420 -610 -7 0
-27 20 -46 45 -19 25 -49 63 -68 85 -18 22 -74 91 -124 153 l-91 112 -165 0
-165 0 123 -152 c68 -84 125 -155 128 -158 3 -3 24 -27 45 -55 52 -65 74 -91
109 -132 l28 -33 227 0 228 0 358 538 c198 295 403 603 457 684 l97 148 -97
-3 c-53 -1 -124 -4 -156 -7z"/>
</g>
</svg>
